<svg width="622" height="216" viewBox="0 0 622 216" fill="none" xmlns="http://www.w3.org/2000/svg">
<path d="M178.4 12.3C187.8 19.9 192.5 29.6 192.5 41.4C192.5 53.2 189 63.6 182 72.6C169.6 89 150.5 99.6 124.7 104.4L115.1 106.2C125.1 141 146.1 175.4 178.1 209.4C175.1 210 170.5 210.3 164.3 210.3L141.2 209.4C133.2 209.4 124.7 201.6 115.7 186C106.9 170.2 99.9 154.2 94.7 138C89.5 121.6 86.9 110.7 86.9 105.3C86.9 102.3 88.3 100.7 91.1 100.5C138.1 94.7 162.3 76.3 163.7 45.3C163.7 34.3 160.4 25.8 153.8 19.8C147.4 13.8 136.8 10.4 122 9.59997C106.4 30.6 89.1 64.2 70.1 110.4C51.3 157.4 41.9 188.4 41.9 203.4C41.9 206.4 42.3 208.6 43.0999 210H4.39995C9.99995 185.8 21.8 152.2 39.8 109.2C63.8 52 79.3 19.5 86.3 11.7C69.3 12.1 52 15.6 34.4 22.2C17 28.6 6.89995 36.3 4.09995 45.3C3.89995 45.9 3.49995 46.2 2.89995 46.2C1.09995 46.2 0.199951 44.9 0.199951 42.3C0.199951 41.9 0.399951 40.9 0.799951 39.3C4.59995 28.3 10.1 19.8 17.3 13.8C24.5 7.79997 31.5 4.09997 38.3 2.69997C45.3 1.29997 53.9 0.599976 64.1 0.599976H137C155.4 0.599976 169.2 4.49997 178.4 12.3Z" fill="white"/>
<path d="M297.964 132C299.164 132 299.764 134 299.764 138C299.764 141.8 298.164 146.4 294.964 151.8C291.764 157.2 288.564 162.3 285.364 167.1C282.364 171.9 278.264 177.5 273.064 183.9C267.864 190.3 262.764 195.4 257.764 199.2C245.164 208.4 232.464 213 219.664 213C207.064 213 196.864 209.8 189.064 203.4C181.264 196.8 177.364 186.8 177.364 173.4C177.364 153 184.864 134.1 199.864 116.7C214.864 99.3 232.364 90.6 252.364 90.6C261.364 90.6 268.564 93 273.964 97.8C279.364 102.4 282.064 108 282.064 114.6C282.064 125.8 276.764 134.8 266.164 141.6C255.564 148.4 243.064 151.8 228.664 151.8C220.264 151.8 214.064 150.7 210.064 148.5C206.264 158.7 204.364 167.7 204.364 175.5C204.364 192.3 211.464 200.7 225.664 200.7C234.064 200.7 242.664 197.5 251.464 191.1C260.464 184.5 268.064 177.2 274.264 169.2C280.664 161 287.864 149.3 295.864 134.1C296.664 132.7 297.364 132 297.964 132ZM266.164 108.3C266.164 102.5 263.364 99.6 257.764 99.6C249.964 99.6 241.264 104.4 231.664 114C222.064 123.6 217.264 131.4 217.264 137.4C217.264 141.4 221.064 143.4 228.664 143.4C236.264 143.4 244.164 139.7 252.364 132.3C260.764 124.9 265.364 116.9 266.164 108.3Z" fill="white"/>
<path d="M409.984 149.1C394.984 174.1 381.384 191.5 369.184 201.3C356.984 211.1 341.184 216 321.784 216C310.584 216 301.184 213.9 293.584 209.7C285.984 205.3 282.184 198.9 282.184 190.5C282.184 185.7 283.584 181.3 286.384 177.3C289.184 173.3 292.984 171.3 297.784 171.3C302.784 171.3 305.984 173.1 307.384 176.7C303.584 180.5 301.684 184.9 301.684 189.9C301.684 199.9 307.284 204.9 318.484 204.9C325.084 204.9 330.784 202.6 335.584 198C340.584 193.4 343.084 188.4 343.084 183C343.084 177.4 341.884 172.5 339.484 168.3C337.084 164.1 334.184 160.4 330.784 157.2C327.384 154 323.984 150.8 320.584 147.6C312.384 139.8 308.284 130.9 308.284 120.9C308.284 110.7 312.084 102.2 319.684 95.4C327.484 88.4 338.084 84.9 351.484 84.9C359.884 84.9 366.984 86.4 372.784 89.4C378.584 92.4 381.484 97.1 381.484 103.5C381.484 109.7 379.584 115.1 375.784 119.7C371.984 124.3 366.784 126.6 360.184 126.6C353.784 126.6 350.584 123.6 350.584 117.6C350.584 116.2 352.884 114.1 357.484 111.3C362.084 108.5 364.384 105.6 364.384 102.6C364.384 99.6 363.084 97.4 360.484 96C358.084 94.4 354.584 93.6 349.984 93.6C345.384 93.6 340.884 95.2 336.484 98.4C332.284 101.6 330.184 105.8 330.184 111C330.184 116.2 332.384 121.1 336.784 125.7C341.184 130.3 345.984 134.2 351.184 137.4C356.384 140.6 361.184 145.1 365.584 150.9C369.984 156.5 372.184 162.5 372.184 168.9C372.184 175.1 370.684 180.7 367.684 185.7C364.884 190.7 361.484 194.7 357.484 197.7C368.684 192.9 380.584 180.9 393.184 161.7C394.384 160.1 396.484 156.8 399.484 151.8C406.484 139.2 410.384 132.9 411.184 132.9C412.384 132.9 412.984 134.8 412.984 138.6C412.984 142.2 411.984 145.7 409.984 149.1Z" fill="white"/>
<path d="M491.862 38.1C482.062 44.9 471.062 62.3 458.862 90.3H489.162L489.462 90.6C489.462 91.6 488.362 93.4 486.162 96C483.962 98.4 482.062 99.6 480.462 99.6H454.662C438.862 138.8 430.962 164 430.962 175.2C430.962 182.8 433.362 186.6 438.162 186.6C445.162 186.6 453.362 180.6 462.762 168.6C464.962 166 467.862 161.6 471.462 155.4C480.662 140.6 485.462 133.2 485.862 133.2C487.062 133.2 487.662 134.8 487.662 138C487.462 145.6 479.162 160.4 462.762 182.4C457.362 189.6 450.862 196.3 443.262 202.5C435.662 208.7 428.762 211.8 422.562 211.8C411.162 211.8 405.462 203.8 405.462 187.8C405.462 174.4 408.662 159 415.062 141.6V141.3C411.262 148.3 407.962 153.5 405.162 156.9C402.562 160.3 401.062 162 400.662 162C399.862 162 399.462 160.8 399.462 158.4C399.462 155.8 400.762 151.7 403.362 146.1C406.162 140.5 409.862 133.2 414.462 124.2C419.262 115.2 423.162 107 426.162 99.6H406.062C405.462 99.6 405.162 99.2 405.162 98.4C405.162 97.4 405.862 95.8 407.262 93.6C408.862 91.4 410.062 90.3 410.862 90.3H433.662C448.062 55.7 462.662 38.4 477.462 38.4C486.062 38.4 490.862 38.3 491.862 38.1Z" fill="white"/>
<path d="M617.869 136.2C618.469 135 619.07 134.4 619.669 134.4C620.87 134.4 621.469 135.9 621.469 138.9C621.469 148.5 617.569 156.5 609.769 162.9C602.169 169.1 594.969 172.2 588.169 172.2C581.569 172.2 575.869 170.3 571.069 166.5C563.869 180.7 555.269 191.9 545.269 200.1C535.469 208.3 522.769 212.4 507.169 212.4C497.169 212.4 488.969 209.4 482.569 203.4C476.369 197.2 473.269 187.9 473.269 175.5C473.269 162.9 476.069 150 481.669 136.8C487.469 123.4 496.069 111.9 507.469 102.3C519.069 92.7 531.969 87.9 546.169 87.9C569.969 87.9 581.869 100.5 581.869 125.7C581.869 135.3 579.769 145.4 575.569 156C578.569 160.2 582.869 162.3 588.469 162.3C598.869 162.3 608.669 153.6 617.869 136.2ZM567.769 117.6C566.969 107 562.169 101.7 553.369 101.7C539.569 101.7 526.069 115.1 512.869 141.9C505.669 156.7 502.069 170.1 502.069 182.1C502.069 194.1 507.269 200.4 517.669 201C526.269 201 534.17 196.5 541.37 187.5C548.77 178.3 554.969 168.2 559.969 157.2C553.169 151.4 549.769 144.1 549.769 135.3C549.769 129.9 551.169 125.6 553.969 122.4C556.969 119.2 560.969 117.6 565.969 117.6H567.769Z" fill="white"/>
</svg>
